<svg xmlns="http://www.w3.org/2000/svg" viewBox="0 0 350 350"><g transform="matrix(5,0,0,5,0,0)" fill="#ff5722"><path d="M44.6,55c1.7-3.7,2.9-8.1,3.5-12.9c1.7-1.8,3.3-3.6,4.7-5.5c2.1,3.3,3.3,6.5,3.7,9.2c0.7,0,1.4,0.2,2.1,0.5    c-0.3-3.5-1.8-7.4-4.5-11.5c5-7.6,6-14.5,2.6-18.7c-2.5-3.2-7.1-4.3-13-3.3c-1.1-2-2.4-3.7-3.7-5c-0.2,0.7-0.5,1.4-0.8,2    c0.9,0.9,1.7,2.1,2.5,3.4c-2.8,0.7-5.6,1.8-8.6,3.3h0c-2.9-1.5-5.8-2.6-8.6-3.3c0.8-1.3,1.6-2.5,2.5-3.4c-0.4-0.6-0.7-1.3-0.8-2    c-1.4,1.3-2.6,3-3.7,5c-5.9-1-10.5,0.2-13,3.3C6.1,20.3,7,27.3,12,34.9C9.3,39,7.8,42.9,7.5,46.4c0.6-0.3,1.3-0.4,2.1-0.5    c0.3-2.8,1.6-5.9,3.7-9.2c1.4,1.9,2.9,3.7,4.7,5.5c0.6,4.8,1.8,9.2,3.5,12.9c-1.6,0.2-3.1,0.3-4.4,0.2c-0.2,0.7-0.5,1.3-0.9,1.9    c0.8,0.1,1.6,0.2,2.4,0.2c1.2,0,2.5-0.1,3.9-0.4C25.2,62.1,29,65,33,65c4,0,7.8-2.9,10.7-8.1c1.4,0.2,2.7,0.3,3.9,0.3    c0.9,0,1.7,0,2.4-0.2c-0.4-0.6-0.7-1.2-0.9-1.9C47.7,55.3,46.2,55.3,44.6,55z M42.5,54.7c-2.3-0.5-4.8-1.4-7.4-2.6    c2.6-1.4,5.1-3.1,7.5-5c1.1-0.8,2.1-1.7,3-2.6C45,48.3,44,51.7,42.5,54.7z M48.4,38.9c0.1-1.3,0.1-2.7,0.1-4c0-1.3,0-2.7-0.1-4    c1.2,1.3,2.2,2.7,3.2,4C50.6,36.2,49.5,37.6,48.4,38.9z M55,17.4c2.6,3.3,1.8,9.3-2.3,15.7c-1.3-1.9-2.9-3.7-4.7-5.5    c-0.6-4.8-1.8-9.2-3.5-12.9C49.4,14,53.1,14.9,55,17.4z M42.5,15.1C44,18,45,21.5,45.7,25.3c-1-0.9-2-1.8-3-2.6    c-2.4-1.9-4.9-3.6-7.5-5C37.7,16.5,40.2,15.6,42.5,15.1z M41.4,24.3c1.7,1.4,3.3,2.8,4.8,4.2l0,0c0.2,2.1,0.4,4.2,0.4,6.4    c0,2.2-0.1,4.3-0.4,6.4c-1.5,1.5-3.1,2.9-4.8,4.2c-2.7,2.1-5.5,4-8.4,5.5c-2.9-1.5-5.7-3.4-8.4-5.5c-1.7-1.3-3.3-2.8-4.8-4.2    c-0.2-2.1-0.4-4.2-0.4-6.3c0-2.2,0.1-4.3,0.4-6.4v0c1.5-1.5,3.1-2.9,4.8-4.2c2.7-2.1,5.5-4,8.4-5.5C35.9,20.3,38.7,22.1,41.4,24.3    z M30.8,17.7c-2.6,1.4-5.1,3.1-7.5,5c-1,0.8-2.1,1.7-3,2.6C21,21.5,22,18,23.4,15.1C25.8,15.6,28.3,16.5,30.8,17.7z M10.9,17.4    c1.9-2.5,5.6-3.4,10.4-2.7c-1.7,3.7-2.9,8.1-3.5,12.8v0c-1.8,1.8-3.3,3.6-4.7,5.5C9.2,26.6,8.3,20.7,10.9,17.4z M14.4,34.9    c1-1.4,2-2.7,3.2-4c-0.1,1.3-0.1,2.7-0.1,4c0,1.3,0.1,2.7,0.1,4C16.4,37.6,15.4,36.2,14.4,34.9z M20.3,44.4c1,0.9,2,1.8,3,2.6    c2.4,1.9,4.9,3.6,7.5,5c-2.5,1.2-5,2.1-7.4,2.6C22,51.7,21,48.2,20.3,44.4z M33,63c-3.1,0-6.1-2.3-8.6-6.5    c2.8-0.7,5.6-1.8,8.6-3.3c3,1.5,5.8,2.6,8.6,3.3C39.1,60.7,36.1,63,33,63z"></path><path d="M25.1,41.3l6.9-6.9v-9.7c-5.2,0.5-9.2,4.9-9.2,10.2C22.8,37.3,23.6,39.6,25.1,41.3z"></path><path d="M33,45.1c5.3,0,9.7-4.1,10.2-9.2h-9.7l-6.9,6.9C28.3,44.2,30.5,45.1,33,45.1z"></path><path d="M34,24.7v9.2h9.2C42.7,29,38.8,25.2,34,24.7z"></path><path d="M33,11.3c2.8,0,5.2-2.3,5.2-5.2S35.8,1,33,1s-5.1,2.3-5.1,5.1S30.1,11.3,33,11.3z"></path><path d="M55.8,47.9c-2.8,0-5.2,2.3-5.2,5.2s2.3,5.2,5.2,5.2c2.8,0,5.1-2.3,5.1-5.2S58.7,47.9,55.8,47.9z"></path><path d="M10.2,47.9C7.3,47.9,5,50.2,5,53s2.3,5.2,5.2,5.2s5.1-2.3,5.1-5.2S13,47.9,10.2,47.9z"></path></g></svg>